<svg xmlns="http://www.w3.org/2000/svg" viewBox="0 0 16 16">
  <title>2_01_Address book_16x16</title>
  <g id="Layer_1" data-name="Layer 1">
    <rect x="14" y="2" width="1" height="3" fill="#508e3f"/>
    <rect x="14" y="6" width="1" height="3" fill="#508e3f"/>
    <rect x="14" y="10" width="1" height="3" fill="#508e3f"/>
    <g>
      <path d="M2.6.5A1.1,1.1,0,0,0,1.5,1.6V14.5a1,1,0,0,1,1-1h11V.5Z" fill="#5b5b5b" stroke="#5b5b5b" stroke-miterlimit="10"/>
      <path d="M2.5,13.5h11a0,0,0,0,1,0,0v2a0,0,0,0,1,0,0H2.5a1,1,0,0,1-1-1v0a1,1,0,0,1,1-1Z" fill="none" stroke="#5b5b5b" stroke-miterlimit="10"/>
    </g>
    <circle cx="7.5" cy="5.5" r="1.5" fill="#fff"/>
    <path d="M5,10V9.5A2.5,2.5,0,0,1,7.5,7h0A2.5,2.5,0,0,1,10,9.5V10Z" fill="#fff"/>
  </g>
</svg>
