<svg xmlns="http://www.w3.org/2000/svg" viewBox="0 0 16 16">
  <title>2_21_alarm_16x16_02</title>
  <g id="Layer_1" data-name="Layer 1">
    <path d="M12,11.1V8A4,4,0,0,0,4,8v3.1a2.8,2.8,0,0,0-2,2.7V14H6v.4A1.6,1.6,0,0,0,7.6,16h.7A1.6,1.6,0,0,0,10,14.4V14h4v-.2A2.8,2.8,0,0,0,12,11.1Z" fill="#515151"/>
    <rect x="4" y="10" width="8" height="1" fill="#990a29"/>
    <path d="M.5,6.5A6,6,0,0,1,4.6.8" fill="none" stroke="#515151" stroke-linecap="round" stroke-miterlimit="10"/>
    <path d="M2.5,6.1a4,4,0,0,1,3-3.4" fill="none" stroke="#515151" stroke-linecap="round" stroke-miterlimit="10"/>
    <path d="M15.5,6.5A6,6,0,0,0,11.4.8" fill="none" stroke="#515151" stroke-linecap="round" stroke-miterlimit="10"/>
    <path d="M13.5,6.1a4,4,0,0,0-3-3.4" fill="none" stroke="#515151" stroke-linecap="round" stroke-miterlimit="10"/>
  </g>
</svg>
