<svg xmlns="http://www.w3.org/2000/svg" viewBox="0 0 16 16">
  <title>2_14_Calendar_16x16</title>
  <g id="Layer_1" data-name="Layer 1">
    <path d="M15,4V15H1V4H15m0-1H1A1,1,0,0,0,0,4V15a1,1,0,0,0,1,1H15a1,1,0,0,0,1-1V4a1,1,0,0,0-1-1Z" fill="#5b5b5b"/>
    <rect x="5" y="6" width="2" height="2" fill="#515151"/>
    <rect x="2" y="9" width="2" height="2" fill="#515151"/>
    <rect x="5" y="9" width="2" height="2" fill="#515151"/>
    <rect x="8" y="9" width="2" height="2" fill="#515151"/>
    <rect x="11" y="9" width="2" height="2" fill="#515151"/>
    <rect x="8" y="6" width="2" height="2" fill="#515151"/>
    <rect x="11" y="6" width="2" height="2" fill="#515151"/>
    <rect x="2" y="12" width="2" height="2" fill="#515151"/>
    <rect x="5" y="12" width="2" height="2" fill="#515151"/>
    <path d="M1,1H15a1,1,0,0,1,1,1V5a0,0,0,0,1,0,0H0A0,0,0,0,1,0,5V2A1,1,0,0,1,1,1Z" fill="#1b4d7f"/>
    <line x1="3.5" x2="3.5" y2="2" fill="none" stroke="#5b5b5b" stroke-miterlimit="10"/>
    <line x1="12.5" x2="12.5" y2="2" fill="none" stroke="#5b5b5b" stroke-miterlimit="10"/>
  </g>
</svg>
