<svg xmlns="http://www.w3.org/2000/svg" viewBox="0 0 16 16">
  <title>1_03_Gear_16x16_02</title>
  <g id="Layer_1" data-name="Layer 1">
    <path d="M15,6.4H13.9a.7.7,0,0,1-.7-.4,5.6,5.6,0,0,0-.8-1.4.7.7,0,0,1-.1-.8l.5-.9c.2-.3.1-.6-.1-.7L10.8,1a.5.5,0,0,0-.6.2l-.6,1a.7.7,0,0,1-.7.3H7.2a.7.7,0,0,1-.7-.3l-.5-.9C5.7.9,5.5.8,5.2,1l-2,1.1a.5.5,0,0,0-.2.6l.6,1a.7.7,0,0,1-.1.8A5.6,5.6,0,0,0,2.7,6a.7.7,0,0,1-.7.4H1a.5.5,0,0,0-.5.5V9.1a.5.5,0,0,0,.5.5H2.1a.7.7,0,0,1,.7.4,5.6,5.6,0,0,0,.8,1.4.7.7,0,0,1,.1.8l-.5.9c-.2.3-.1.6.1.7l2,1.1a.5.5,0,0,0,.6-.2l.6-1a.7.7,0,0,1,.7-.3H8.8a.7.7,0,0,1,.7.3l.5.9c.2.3.5.4.7.3l2-1.1a.5.5,0,0,0,.2-.6l-.6-1a.7.7,0,0,1,.1-.8,5.6,5.6,0,0,0,.8-1.4.7.7,0,0,1,.7-.4H15a.5.5,0,0,0,.5-.5V6.9A.5.5,0,0,0,15,6.4ZM8,10.5A2.5,2.5,0,1,1,10.5,8,2.5,2.5,0,0,1,8,10.5Z" fill="#5b5b5b" stroke="#5b5b5b" stroke-miterlimit="10"/>
  </g>
</svg>
