<svg id="Layer_1" data-name="Layer 1" xmlns="http://www.w3.org/2000/svg" viewBox="0 0 16 16">
  <title>Import_data_tool_16x16</title>
  <g>
    <path d="M3.7,15.5a1.2,1.2,0,0,1-1.2-1.2V1.7A1.2,1.2,0,0,1,3.7.5h8.1l3.7,3.7V14.3a1.2,1.2,0,0,1-1.2,1.2Z" fill="#fff"/>
    <path d="M11.6,1,15,4.4v9.9a.7.7,0,0,1-.7.7H3.7a.7.7,0,0,1-.7-.7V1.7A.7.7,0,0,1,3.7,1h7.9M12,0H3.7A1.7,1.7,0,0,0,2,1.7V14.3A1.7,1.7,0,0,0,3.7,16H14.3A1.7,1.7,0,0,0,16,14.3V4L12,0Z" fill="#515151"/>
    <rect x="2" y="8" width="1" height="5" fill="#fff"/>
  </g>
  <path d="M5.9,8.1a.5.5,0,0,0-.7.7L6,10H0v1H6l-.8,1.1a.5.5,0,0,0-.1.7l.4.2h.3l2.6-2.2Z" fill="#3585c1"/>
</svg>
