<svg xmlns="http://www.w3.org/2000/svg" viewBox="0 0 16 16">
  <title>2_19_Link icon_disconncted_16x16</title>
  <g id="Layer_1" data-name="Layer 1">
    <g>
      <path d="M4.7,15.8a4.1,4.1,0,0,1-2.9-1.2l-.5-.5a4.2,4.2,0,0,1,0-5.9L3.4,6.1,4.8,7.5,2.7,9.6a2.2,2.2,0,0,0,0,3.1l.5.5a2.2,2.2,0,0,0,3.1,0l2.1-2.1,1.4,1.4L7.7,14.5A4.1,4.1,0,0,1,4.7,15.8Z" fill="#515151"/>
      <path d="M12.7,9.7,11.3,8.3l2-1.9a2.1,2.1,0,0,0,.6-1.5,2.2,2.2,0,0,0-.6-1.6l-.5-.5a2.2,2.2,0,0,0-3.1,0L7.7,4.7,6.3,3.3l2-1.8a4.2,4.2,0,0,1,5.9,0l.5.5a4.2,4.2,0,0,1,1.2,3,4.1,4.1,0,0,1-1.2,2.9Z" fill="#515151"/>
    </g>
    <rect x="5" width="1" height="3" fill="#515151"/>
    <rect y="5" width="3" height="1" fill="#515151"/>
    <rect x="2" y="0.4" width="1" height="4.29" transform="translate(-1 2.5) rotate(-45)" fill="#515151"/>
    <rect x="5" width="1" height="3" fill="#515151"/>
    <rect y="5" width="3" height="1" fill="#515151"/>
    <rect x="2" y="0.4" width="1" height="4.29" transform="translate(-1 2.5) rotate(-45)" fill="#515151"/>
    <rect x="10" y="13" width="1" height="3" fill="#515151"/>
    <rect x="13" y="10" width="3" height="1" fill="#515151"/>
    <rect x="13" y="11.4" width="1" height="4.29" transform="translate(-5.6 13.5) rotate(-45)" fill="#515151"/>
  </g>
</svg>
