<?xml version="1.0" encoding="UTF-8"?>
<!DOCTYPE svg PUBLIC "-//W3C//DTD SVG 1.1//EN" "http://www.w3.org/Graphics/SVG/1.1/DTD/svg11.dtd">
<svg version="1.1" xmlns="http://www.w3.org/2000/svg" xmlns:xlink="http://www.w3.org/1999/xlink" x="0" y="0" width="129" height="129" viewBox="0, 0, 129, 129">
  <g id="Livello_1">
    <path d="M111.289,10.5 L17.637,10.5 C13.633,10.5 10.5,13.633 10.5,17.637 C10.5,21.641 13.633,24.774 17.637,24.774 L111.463,24.774 C115.467,24.774 118.6,21.641 118.6,17.637 C118.426,13.633 115.293,10.5 111.289,10.5 z" fill="#FFFFFF"/>
    <path d="M111.289,104.326 L17.637,104.326 C13.633,104.326 10.5,107.459 10.5,111.463 C10.5,115.467 13.633,118.6 17.637,118.6 L111.463,118.6 C115.467,118.6 118.6,115.467 118.6,111.463 C118.426,107.459 115.293,104.326 111.289,104.326 z" fill="#FFFFFF"/>
    <path d="M111.289,57.363 L17.637,57.363 C13.633,57.363 10.5,60.496 10.5,64.5 C10.5,68.504 13.633,71.637 17.637,71.637 L111.463,71.637 C115.467,71.637 118.6,68.504 118.6,64.5 C118.426,60.496 115.293,57.363 111.289,57.363 z" fill="#FFFFFF"/>
  </g>
</svg>
