<svg xmlns="http://www.w3.org/2000/svg" viewBox="0 0 16 16">
  <title>2_10_Online help_16x16_02</title>
  <g id="Layer_1" data-name="Layer 1">
    <circle cx="8" cy="8" r="8" fill="#1b4d7f"/>
    <path d="M7.2,10a2.8,2.8,0,0,1,.2-1.1,3.3,3.3,0,0,1,.7-1l.9-.9a2.1,2.1,0,0,0,.6-1.4,1.6,1.6,0,0,0-.4-1.1A1.4,1.4,0,0,0,8,4a1.6,1.6,0,0,0-1.1.4,1.2,1.2,0,0,0-.4,1H5.2A2.3,2.3,0,0,1,6,3.6a2.9,2.9,0,0,1,2-.7,2.8,2.8,0,0,1,2,.7,2.5,2.5,0,0,1,.7,1.9A3.4,3.4,0,0,1,9.7,7.9l-.7.7A1.8,1.8,0,0,0,8.4,10Zm-.1,2.4a.7.7,0,0,1,.2-.5l.6-.2.6.2a.8.8,0,0,1,.2.5.7.7,0,0,1-.2.5l-.6.2-.6-.2A.7.7,0,0,1,7.1,12.4Z" fill="#fff"/>
  </g>
</svg>
