<svg xmlns="http://www.w3.org/2000/svg" xmlns:xlink="http://www.w3.org/1999/xlink" viewBox="0 0 16 16">
  <defs>
    <clipPath id="clip-path">
      <path d="M0,0V11.1H.5a1.5,1.5,0,0,1,1.4,1L5.4,8.4a1.5,1.5,0,0,1,2.1,2.1L4,14.1a1.5,1.5,0,0,1,1,1.4,1.5,1.5,0,0,1-.1.5H16V0Z" fill="none"/>
    </clipPath>
  </defs>
  <title>1_01_Open floating window_16x16_03</title>
  <g id="Layer_1" data-name="Layer 1">
    <g clip-path="url(#clip-path)">
      <path d="M15,3V13H3V3H15m1-1H2V13.5a.5.5,0,0,0,.5.5h13a.5.5,0,0,0,.5-.5Z" fill="#5b5b5b"/>
      <path d="M15.3,0H2.7A.7.7,0,0,0,2,.7H2V2.3a.7.7,0,0,0,.7.7H15.3a.7.7,0,0,0,.7-.7V.7A.7.7,0,0,0,15.3,0Z" fill="#1b4d7f"/>
    </g>
    <rect x="3" y="1" width="1" height="1" fill="#fff"/>
    <path d="M3.5,16a.5.5,0,0,0,0-1H1.7L6.9,9.9a.5.5,0,0,0,0-.7H6.1L1,14.3V12.5a.5.5,0,1,0-1,0V16Z" fill="#3585c1"/>
  </g>
</svg>
