<svg id="Layer_1" data-name="Layer 1" xmlns="http://www.w3.org/2000/svg" viewBox="0 0 16 16">
  <title>Select_view_16x16</title>
  <g>
    <polygon points="0.5 15.5 0.5 3.5 15.5 3.5 15.5 15.5 15.5 15.5 0.5 15.5" fill="#fff"/>
    <path d="M15,4V15H1V4H15m1-1H0V15.5a.5.5,0,0,0,.5.5h15a.5.5,0,0,0,.5-.5V3Z" fill="#5b5b5b"/>
  </g>
  <line x1="5.5" y1="3" x2="5.5" y2="16" fill="none" stroke="#5b5b5b" stroke-miterlimit="10"/>
  <line x1="10.5" y1="3" x2="10.5" y2="16" fill="none" stroke="#5b5b5b" stroke-miterlimit="10"/>
  <g>
    <rect x="0.5" y="0.5" width="15" height="3" rx="0.2" ry="0.2" fill="#1b4d7f"/>
    <path d="M15,1V3H1V1H15m.3-1H.7A.7.7,0,0,0,0,.7V3.3A.7.7,0,0,0,.7,4H15.3a.7.7,0,0,0,.7-.7V.7a.7.7,0,0,0-.7-.7Z" fill="#1b4d7f"/>
  </g>
  <line y1="6.5" x2="15" y2="6.5" fill="none" stroke="#5b5b5b" stroke-miterlimit="10"/>
  <line y1="9.5" x2="15" y2="9.5" fill="none" stroke="#5b5b5b" stroke-miterlimit="10"/>
  <line y1="12.5" x2="15" y2="12.5" fill="none" stroke="#5b5b5b" stroke-miterlimit="10"/>
  <line x1="1" y1="3.5" x2="16" y2="3.5" fill="none" stroke="#1b4d7f" stroke-miterlimit="10"/>
</svg>
