<svg xmlns="http://www.w3.org/2000/svg" viewBox="0 0 16 16">
  <title>1_09_Sockets_disconnected_16x16_02</title>
  <g id="Layer_1" data-name="Layer 1">
    <line x1="0.5" y1="15.8" x2="3" y2="13.3" fill="none" stroke="#515151" stroke-miterlimit="10"/>
    <path d="M3.3,8.2h3A1.8,1.8,0,0,1,8.1,10v4.7a0,0,0,0,1,0,0H1.5a0,0,0,0,1,0,0V10A1.8,1.8,0,0,1,3.3,8.2Z" transform="translate(0 23) rotate(-135)" fill="#515151"/>
    <line x1="16" y1="0.3" x2="13.4" y2="2.8" fill="none" stroke="#515151" stroke-miterlimit="10"/>
    <path d="M10,1.3h3a1.8,1.8,0,0,1,1.8,1.8v5a0,0,0,0,1,0,0H8.2a0,0,0,0,1,0,0v-5A1.8,1.8,0,0,1,10,1.3Z" transform="translate(6.7 -6.8) rotate(45)" fill="#515151"/>
    <g>
      <circle cx="12" cy="12" r="4" fill="#990a29"/>
      <g>
        <line x1="10" y1="10" x2="14" y2="14" fill="none" stroke="#fff" stroke-miterlimit="10"/>
        <line x1="14" y1="10" x2="10" y2="14" fill="none" stroke="#fff" stroke-miterlimit="10"/>
      </g>
    </g>
  </g>
</svg>
