<svg xmlns="http://www.w3.org/2000/svg" viewBox="0 0 16 16">
  <title>1_10_Sockets_transmitting_16x16_02</title>
  <g id="Layer_1" data-name="Layer 1">
    <g>
      <path d="M8.1,8.8,5.5,6.2l-3,3a1.8,1.8,0,0,0,0,2.5l2.1,2.1a1.8,1.8,0,0,0,2.5,0l.3-.3-2-2Z" fill="#515151"/>
      <path d="M10.6,8.4a1.5,1.5,0,0,1,.4,1.5L14,6.9a1.8,1.8,0,0,0,0-2.5L11.9,2.3a1.8,1.8,0,0,0-2.5,0L6.2,5.5,8.9,8.2,9.5,8A1.5,1.5,0,0,1,10.6,8.4Z" fill="#515151"/>
    </g>
    <g>
      <path d="M13.5,16h-.4a.5.5,0,0,1,0-.7l1.6-1.6-1.6-1.6a.5.5,0,0,1,.7-.7l2.4,2.4-2.4,2.4Z" fill="#3585c1"/>
      <polygon points="13 13 11 13 11 13.5 11 14 15 14 15 13 13 13" fill="#3585c1"/>
    </g>
    <path d="M9.9,9.9a.5.5,0,0,0-.7-.7L6.8,11.5l2.4,2.4h.7a.5.5,0,0,0,0-.7L8.7,12H12V11H8.7Z" fill="#3585c1"/>
    <rect x="-0.3" y="13.5" width="5" height="1" transform="translate(-9.3 5.7) rotate(-45)" fill="#515151"/>
    <rect x="11.7" y="1.6" width="5" height="1" transform="translate(2.7 10.6) rotate(-45)" fill="#515151"/>
  </g>
</svg>
