<svg xmlns="http://www.w3.org/2000/svg" viewBox="0 0 16 16">
  <title>2_18_Toolbox icon_16x16</title>
  <g id="Layer_1" data-name="Layer 1">
    <path d="M1,8H15a0,0,0,0,1,0,0v7.5a.5.5,0,0,1-.5.5H1.5a.5.5,0,0,1-.5-.5V8A0,0,0,0,1,1,8Z" fill="#515151"/>
    <rect y="4" width="16" height="4" rx="0.5" ry="0.5" fill="#515151"/>
    <path d="M5.5,1.5h4.9a1,1,0,0,1,1,1v2a0,0,0,0,1,0,0h-7a0,0,0,0,1,0,0v-2A1,1,0,0,1,5.5,1.5Z" fill="none" stroke="#515151" stroke-miterlimit="10"/>
    <path d="M8.8,10.3,6.3,13.5a1.3,1.3,0,0,1-1.9.1h0a1.3,1.3,0,0,1,.1-1.9L7.6,9.1a2.2,2.2,0,0,1,2.5-3.1.2.2,0,0,1,.1.4L9.1,7.6a.5.5,0,0,0,0,.7l.5.5a.5.5,0,0,0,.7,0l1.1-1.1a.2.2,0,0,1,.4.1A2.2,2.2,0,0,1,8.2,10" fill="#fff"/>
  </g>
</svg>
