<?xml version="1.0" encoding="UTF-8"?>
<!DOCTYPE svg PUBLIC "-//W3C//DTD SVG 1.1//EN" "http://www.w3.org/Graphics/SVG/1.1/DTD/svg11.dtd">
<svg version="1.1" xmlns="http://www.w3.org/2000/svg" xmlns:xlink="http://www.w3.org/1999/xlink" x="0" y="0" width="548.291" height="548.291" viewBox="0, 0, 548.291, 548.291">
  <g id="Livello_1">
    <path d="M486.207,196.121 L473.041,196.121 L473.041,132.596 C473.041,132.2 472.979,131.801 472.932,131.396 C472.911,128.876 472.103,126.399 470.376,124.436 L364.658,3.677 C364.625,3.646 364.594,3.635 364.573,3.602 C363.943,2.898 363.209,2.312 362.43,1.806 C362.201,1.652 361.969,1.523 361.728,1.387 C361.056,1.022 360.341,0.715 359.607,0.494 C359.407,0.442 359.228,0.36 359.03,0.308 C358.231,0.118 357.402,0 356.563,0 L96.758,0 C84.895,0 75.257,9.649 75.257,21.502 L75.257,196.115 L62.093,196.115 C45.122,196.115 31.361,209.871 31.361,226.848 L31.361,386.66 C31.361,403.621 45.122,417.391 62.093,417.391 L75.257,417.391 L75.257,526.79 C75.257,538.644 84.895,548.291 96.758,548.291 L451.534,548.291 C463.387,548.291 473.035,538.644 473.035,526.79 L473.035,417.392 L486.201,417.392 C503.167,417.392 516.93,403.628 516.93,386.661 L516.93,226.854 C516.931,209.872 503.177,196.121 486.207,196.121 z M96.758,21.502 L345.812,21.502 L345.812,131.508 C345.812,137.448 350.629,142.259 356.563,142.259 L451.535,142.259 L451.535,196.12 L96.758,196.12 L96.758,21.502 z M314.577,314.661 C293.453,307.302 279.669,295.616 279.669,277.117 C279.669,255.419 297.779,238.82 327.785,238.82 C342.116,238.82 352.688,241.834 360.227,245.233 L353.816,268.433 C348.725,265.987 339.67,262.396 327.218,262.396 C314.766,262.396 308.73,268.058 308.73,274.662 C308.73,282.777 315.901,286.358 332.31,292.583 C354.756,300.888 365.323,312.583 365.323,330.504 C365.323,351.827 348.908,369.939 314.005,369.939 C299.481,369.939 285.144,366.17 277.974,362.202 L283.817,338.432 C291.555,342.39 303.444,346.359 315.702,346.359 C328.92,346.359 335.89,340.889 335.89,332.585 C335.895,324.667 329.859,320.13 314.577,314.661 z M265.918,343.9 L265.918,368.057 L186.479,368.057 L186.479,240.882 L215.356,240.882 L215.356,343.9 L265.918,343.9 z M94.238,368.057 L61.412,368.057 L98.2,303.704 L62.727,240.877 L95.748,240.877 L106.873,264.087 C110.647,271.823 113.479,278.041 116.501,285.222 L116.868,285.222 C119.895,277.107 122.345,271.447 125.543,264.087 L136.299,240.877 L169.126,240.877 L133.278,302.943 L171.018,368.046 L137.816,368.046 L126.301,345.024 C121.592,336.169 118.571,329.559 114.985,322.2 L114.61,322.2 C111.965,329.559 108.765,336.169 104.799,345.024 L94.238,368.057 z M451.535,520.968 L96.758,520.968 L96.758,417.392 L451.534,417.392 L451.534,520.968 z M451.729,368.057 L440.217,345.035 C435.502,336.172 432.484,329.57 428.898,322.21 L428.532,322.21 C425.886,329.57 422.674,336.172 418.705,345.035 L408.154,368.057 L375.318,368.057 L412.106,303.704 L376.635,240.877 L409.655,240.877 L420.794,264.087 C424.564,271.823 427.387,278.041 430.412,285.222 L430.789,285.222 C433.802,277.107 436.248,271.447 439.46,264.087 L450.212,240.877 L483.047,240.877 L447.198,302.943 L484.931,368.046 L451.729,368.046 L451.729,368.057 z" fill="#ffffff"/>
  </g>
</svg>
