<?xml version="1.0" encoding="UTF-8"?>
<!DOCTYPE svg PUBLIC "-//W3C//DTD SVG 1.1//EN" "http://www.w3.org/Graphics/SVG/1.1/DTD/svg11.dtd">
<svg version="1.1" xmlns="http://www.w3.org/2000/svg" xmlns:xlink="http://www.w3.org/1999/xlink" x="0" y="0" width="129" height="129" viewBox="0, 0, 129, 129">
  <g id="Livello_1">
    <g>
      <path d="M64.5,122.6 C96.5,122.6 122.6,96.6 122.6,64.5 C122.6,32.4 96.6,6.5 64.5,6.5 C32.4,6.5 6.5,32.5 6.5,64.5 C6.5,96.5 32.5,122.6 64.5,122.6 z M64.5,14.6 C92,14.6 114.4,37 114.4,64.5 C114.4,92 92,114.4 64.5,114.4 C37,114.4 14.6,92 14.6,64.5 C14.6,37 37,14.6 64.5,14.6 z" fill="#FFFFFF"/>
      <path d="M70,93.5 C70.8,94.3 71.8,94.7 72.9,94.7 C73.9,94.7 75,94.3 75.8,93.5 C77.4,91.9 77.4,89.3 75.8,87.7 L52.3,64.2 L75.8,40.7 C77.4,39.1 77.4,36.5 75.8,34.9 C74.2,33.3 71.6,33.3 70,34.9 L43.6,61.3 C42.8,62.1 42.4,63.1 42.4,64.2 C42.4,65.3 42.8,66.3 43.6,67.1 L70,93.5 z" fill="#FFFFFF"/>
    </g>
  </g>
</svg>
