<?xml version="1.0" encoding="UTF-8"?>
<!DOCTYPE svg PUBLIC "-//W3C//DTD SVG 1.1//EN" "http://www.w3.org/Graphics/SVG/1.1/DTD/svg11.dtd">
<svg version="1.1" xmlns="http://www.w3.org/2000/svg" xmlns:xlink="http://www.w3.org/1999/xlink" x="0" y="0" width="129" height="129" viewBox="0, 0, 129, 129">
  <g id="Livello_1">
    <g>
      <path d="M107.348,24.45 L21.493,24.45 C17.822,24.45 14.95,26.772 14.95,29.738 C14.95,32.705 17.822,35.027 21.493,35.027 L107.507,35.027 C111.178,35.027 114.05,32.705 114.05,29.738 C113.89,26.772 111.018,24.45 107.348,24.45 z" fill="#777777"/>
      <path d="M107.348,93.973 L21.493,93.973 C17.822,93.973 14.95,96.295 14.95,99.262 C14.95,102.228 17.822,104.55 21.493,104.55 L107.507,104.55 C111.178,104.55 114.05,102.228 114.05,99.262 C113.89,96.295 111.018,93.973 107.348,93.973 z" fill="#777777"/>
      <path d="M107.348,59.147 L21.493,59.147 C17.822,59.147 14.95,61.469 14.95,64.436 C14.95,67.402 17.822,69.724 21.493,69.724 L107.507,69.724 C111.178,69.724 114.05,67.402 114.05,64.436 C113.89,61.469 111.018,59.147 107.348,59.147 z" fill="#777777"/>
    </g>
  </g>
</svg>
