<?xml version="1.0" encoding="UTF-8"?>
<!DOCTYPE svg PUBLIC "-//W3C//DTD SVG 1.1//EN" "http://www.w3.org/Graphics/SVG/1.1/DTD/svg11.dtd">
<svg version="1.1" xmlns="http://www.w3.org/2000/svg" xmlns:xlink="http://www.w3.org/1999/xlink" x="0" y="0" width="129" height="129" viewBox="0, 0, 129, 129">
  <g id="Livello_1">
    <g>
      <path d="M91.4,33.5 L37.6,33.5 C35.3,33.5 33.5,35.3 33.5,37.6 C33.5,39.9 35.3,41.7 37.6,41.7 L91.5,41.7 C93.8,41.7 95.6,39.9 95.6,37.6 C95.5,35.3 93.7,33.5 91.4,33.5 z" fill="#FFFFFF"/>
      <path d="M91.4,87.4 L37.6,87.4 C35.3,87.4 33.5,89.2 33.5,91.5 C33.5,93.8 35.3,95.6 37.6,95.6 L91.5,95.6 C93.8,95.6 95.6,93.8 95.6,91.5 C95.5,89.2 93.7,87.4 91.4,87.4 z" fill="#FFFFFF"/>
      <path d="M91.4,60.4 L37.6,60.4 C35.3,60.4 33.5,62.2 33.5,64.5 C33.5,66.8 35.3,68.6 37.6,68.6 L91.5,68.6 C93.8,68.6 95.6,66.8 95.6,64.5 C95.5,62.2 93.7,60.4 91.4,60.4 z" fill="#FFFFFF"/>
    </g>
  </g>
</svg>
