<?xml version="1.0" encoding="UTF-8"?>
<!DOCTYPE svg PUBLIC "-//W3C//DTD SVG 1.1//EN" "http://www.w3.org/Graphics/SVG/1.1/DTD/svg11.dtd">
<svg version="1.1" xmlns="http://www.w3.org/2000/svg" xmlns:xlink="http://www.w3.org/1999/xlink" x="0" y="0" width="129" height="129" viewBox="0, 0, 129, 129">
  <g id="Livello_1">
    <g>
      <path d="M64.5,122.6 C96.5,122.6 122.6,96.6 122.6,64.5 C122.6,32.4 96.5,6.4 64.5,6.4 C32.5,6.4 6.4,32.5 6.4,64.5 C6.4,96.5 32.5,122.6 64.5,122.6 z M64.5,14.6 C92,14.6 114.4,37 114.4,64.5 C114.4,92 92,114.4 64.5,114.4 C37,114.4 14.6,92 14.6,64.5 C14.6,37 37,14.6 64.5,14.6 z" fill="#FFFFFF"/>
      <path d="M51.1,93.5 C51.9,94.3 52.9,94.7 54,94.7 C55,94.7 56.1,94.3 56.9,93.5 L83.3,67.1 C84.1,66.3 84.5,65.3 84.5,64.2 C84.5,63.1 84.1,62.1 83.3,61.3 L56.9,34.9 C55.3,33.3 52.7,33.3 51.1,34.9 C49.5,36.5 49.5,39.1 51.1,40.7 L74.6,64.2 L51.1,87.7 C49.5,89.3 49.5,91.9 51.1,93.5 z" fill="#FFFFFF"/>
    </g>
  </g>
</svg>
