<?xml version="1.0" encoding="UTF-8"?>
<!DOCTYPE svg PUBLIC "-//W3C//DTD SVG 1.1//EN" "http://www.w3.org/Graphics/SVG/1.1/DTD/svg11.dtd">
<svg version="1.1" xmlns="http://www.w3.org/2000/svg" xmlns:xlink="http://www.w3.org/1999/xlink" x="0" y="0" width="129" height="129" viewBox="0, 0, 129, 129">
  <g id="Livello_1">
    <g>
      <path d="M51.6,96.7 C62.6,96.7 72.6,92.8 80.4,86.2 L115.4,121.2 C116.2,122 117.2,122.4 118.3,122.4 C119.3,122.4 120.4,122 121.2,121.2 C122.8,119.6 122.8,117 121.2,115.4 L86.2,80.4 C92.7,72.6 96.7,62.5 96.7,51.6 C96.7,26.7 76.5,6.5 51.6,6.5 C26.8,6.5 6.5,26.8 6.5,51.6 C6.5,76.5 26.8,96.7 51.6,96.7 z M51.6,14.7 C72,14.7 88.5,31.3 88.5,51.6 C88.5,72 72,88.5 51.6,88.5 C31.2,88.5 14.7,71.9 14.7,51.6 C14.7,31.3 31.3,14.7 51.6,14.7 z" fill="#000000"/>
      <path d="M47.5,78.3 C47.5,80.6 49.3,82.4 51.6,82.4 C53.9,82.4 55.7,80.6 55.7,78.3 L55.7,55.7 L78.3,55.7 C80.6,55.7 82.4,53.9 82.4,51.6 C82.4,49.3 80.6,47.5 78.3,47.5 L55.7,47.5 L55.7,24.9 C55.7,22.6 53.9,20.8 51.6,20.8 C49.3,20.8 47.5,22.6 47.5,24.9 L47.5,47.5 L24.9,47.5 C22.6,47.5 20.8,49.3 20.8,51.6 C20.8,53.9 22.6,55.7 24.9,55.7 L47.5,55.7 L47.5,78.3 z" fill="#000000"/>
    </g>
  </g>
</svg>
