<?xml version="1.0" encoding="UTF-8"?>
<!DOCTYPE svg PUBLIC "-//W3C//DTD SVG 1.1//EN" "http://www.w3.org/Graphics/SVG/1.1/DTD/svg11.dtd">
<svg version="1.1" xmlns="http://www.w3.org/2000/svg" xmlns:xlink="http://www.w3.org/1999/xlink" x="0" y="0" width="16" height="16" viewBox="0, 0, 32, 32">
  <g id="Error">
    <path d="M21.987,11.44 C21.972,11.077 21.837,10.717 21.559,10.44 C21.282,10.163 20.922,10.027 20.559,10.012 C20.155,9.995 19.746,10.131 19.438,10.44 L16,13.879 L12.562,10.44 C12.253,10.131 11.845,9.996 11.441,10.012 C11.078,10.027 10.718,10.162 10.441,10.44 C10.164,10.717 10.028,11.077 10.013,11.44 C9.996,11.844 10.132,12.252 10.441,12.561 L13.879,16 L10.441,19.438 C10.132,19.747 9.997,20.155 10.013,20.559 C10.028,20.922 10.163,21.282 10.441,21.559 C10.718,21.836 11.078,21.972 11.441,21.987 C11.845,22.004 12.253,21.868 12.562,21.559 L16,18.121 L19.439,21.56 C19.748,21.869 20.156,22.004 20.56,21.988 C20.923,21.973 21.283,21.838 21.56,21.56 C21.837,21.283 21.973,20.923 21.988,20.56 C22.005,20.156 21.869,19.748 21.56,19.439 L18.121,16 L21.559,12.562 C21.868,12.253 22.004,11.845 21.987,11.44 z M16,0 C7.164,0 0,7.164 0,16 C0,24.836 7.164,32 16,32 C24.836,32 32,24.836 32,16 C32,7.164 24.836,0 16,0 z M16,29 C8.832,29 3,23.168 3,16 C3,8.832 8.832,3 16,3 C23.168,3 29,8.832 29,16 C29,23.168 23.168,29 16,29 z" fill="#FFFFFF"/>
  </g>
</svg>
